<?xml version="1.0" encoding="UTF-8" standalone="no"?>
<!DOCTYPE svg PUBLIC "-//W3C//DTD SVG 1.1//EN"
 "http://www.w3.org/Graphics/SVG/1.1/DTD/svg11.dtd">
<!-- Generated by graphviz version 2.40.1 (20161225.0304)
 -->
<!-- Title: dependencies Pages: 1 -->
<svg width="2231pt" height="284pt"
 viewBox="0.00 0.00 2231.00 284.00" xmlns="http://www.w3.org/2000/svg" xmlns:xlink="http://www.w3.org/1999/xlink">
<g id="graph0" class="graph" transform="scale(1 1) rotate(0) translate(4 280)">
<title>dependencies</title>
<polygon fill="#ffffff" stroke="transparent" points="-4,4 -4,-280 2227,-280 2227,4 -4,4"/>
<text text-anchor="start" x="1090.5091" y="-42.4" font-family="sans-serif" font-weight="bold" font-size="14.00" fill="#000000">Legend</text>
<polygon fill="#ffffb3" stroke="transparent" points="877.5,-10 877.5,-30 897.5,-30 897.5,-10 877.5,-10"/>
<text text-anchor="start" x="901.129" y="-15.4" font-family="sans-serif" font-size="14.00" fill="#000000"> &#160;Declarations</text>
<polygon fill="#8dd3c7" stroke="transparent" points="990.5,-10 990.5,-30 1010.5,-30 1010.5,-10 990.5,-10"/>
<text text-anchor="start" x="1014.2251" y="-15.4" font-family="sans-serif" font-size="14.00" fill="#000000"> &#160;Module</text>
<polygon fill="#80b1d3" stroke="transparent" points="1076.5,-10 1076.5,-30 1096.5,-30 1096.5,-10 1076.5,-10"/>
<text text-anchor="start" x="1100.2812" y="-15.4" font-family="sans-serif" font-size="14.00" fill="#000000"> &#160;Bootstrap</text>
<polygon fill="#fdb462" stroke="transparent" points="1173.5,-10 1173.5,-30 1193.5,-30 1193.5,-10 1173.5,-10"/>
<text text-anchor="start" x="1197.1732" y="-15.4" font-family="sans-serif" font-size="14.00" fill="#000000"> &#160;Providers</text>
<polygon fill="#fb8072" stroke="transparent" points="1269.5,-10 1269.5,-30 1289.5,-30 1289.5,-10 1269.5,-10"/>
<text text-anchor="start" x="1293.2258" y="-15.4" font-family="sans-serif" font-size="14.00" fill="#000000"> &#160;Exports</text>
<g id="clust1" class="cluster">
<title>cluster_AppModule</title>
<polygon fill="none" stroke="#000000" stroke-dasharray="1,5" points="8,-70 8,-268 981,-268 981,-70 8,-70"/>
</g>
<g id="clust2" class="cluster">
<title>cluster_AppModule_declarations</title>
<polygon fill="none" stroke="#000000" points="527,-78 527,-130 973,-130 973,-78 527,-78"/>
</g>
<g id="clust7" class="cluster">
<title>cluster_AppModule_imports</title>
<polygon fill="none" stroke="#000000" points="375,-78 375,-130 519,-130 519,-78 375,-78"/>
</g>
<g id="clust9" class="cluster">
<title>cluster_AppModule_bootstrap</title>
<polygon fill="none" stroke="#000000" points="506,-208 506,-260 630,-260 630,-208 506,-208"/>
</g>
<g id="clust10" class="cluster">
<title>cluster_AppModule_providers</title>
<polygon fill="none" stroke="#000000" points="16,-78 16,-130 367,-130 367,-78 16,-78"/>
</g>
<g id="clust23" class="cluster">
<title>cluster_InicioSesionPageModule</title>
<polygon fill="none" stroke="#000000" stroke-dasharray="1,5" points="1329,-70 1329,-195 1501,-195 1501,-70 1329,-70"/>
</g>
<g id="clust24" class="cluster">
<title>cluster_InicioSesionPageModule_declarations</title>
<polygon fill="none" stroke="#000000" points="1350,-78 1350,-130 1480,-130 1480,-78 1350,-78"/>
</g>
<g id="clust30" class="cluster">
<title>cluster_JuegoPageModule</title>
<polygon fill="none" stroke="#000000" stroke-dasharray="1,5" points="989,-143 989,-195 1125,-195 1125,-143 989,-143"/>
</g>
<g id="clust37" class="cluster">
<title>cluster_Tab1PageModule</title>
<polygon fill="none" stroke="#000000" stroke-dasharray="1,5" points="1509,-70 1509,-195 1641,-195 1641,-70 1509,-70"/>
</g>
<g id="clust38" class="cluster">
<title>cluster_Tab1PageModule_declarations</title>
<polygon fill="none" stroke="#000000" points="1531,-78 1531,-130 1619,-130 1619,-78 1531,-78"/>
</g>
<g id="clust44" class="cluster">
<title>cluster_Tab2PageModule</title>
<polygon fill="none" stroke="#000000" stroke-dasharray="1,5" points="1649,-70 1649,-195 1781,-195 1781,-70 1649,-70"/>
</g>
<g id="clust45" class="cluster">
<title>cluster_Tab2PageModule_declarations</title>
<polygon fill="none" stroke="#000000" points="1671,-78 1671,-130 1759,-130 1759,-78 1671,-78"/>
</g>
<g id="clust51" class="cluster">
<title>cluster_Tab3PageModule</title>
<polygon fill="none" stroke="#000000" stroke-dasharray="1,5" points="1789,-70 1789,-195 1921,-195 1921,-70 1789,-70"/>
</g>
<g id="clust52" class="cluster">
<title>cluster_Tab3PageModule_declarations</title>
<polygon fill="none" stroke="#000000" points="1811,-78 1811,-130 1899,-130 1899,-78 1811,-78"/>
</g>
<g id="clust58" class="cluster">
<title>cluster_TabsPageModule</title>
<polygon fill="none" stroke="#000000" stroke-dasharray="1,5" points="1929,-70 1929,-195 2215,-195 2215,-70 1929,-70"/>
</g>
<g id="clust59" class="cluster">
<title>cluster_TabsPageModule_declarations</title>
<polygon fill="none" stroke="#000000" points="2121,-78 2121,-130 2207,-130 2207,-78 2121,-78"/>
</g>
<g id="clust61" class="cluster">
<title>cluster_TabsPageModule_imports</title>
<polygon fill="none" stroke="#000000" points="1937,-78 1937,-130 2113,-130 2113,-78 1937,-78"/>
</g>
<g id="clust71" class="cluster">
<title>cluster_VideoPrincipalPageModule</title>
<polygon fill="none" stroke="#000000" stroke-dasharray="1,5" points="1133,-143 1133,-195 1321,-195 1321,-143 1133,-143"/>
</g>
<!-- AppComponent -->
<g id="node1" class="node">
<title>AppComponent</title>
<polygon fill="#ffffb3" stroke="#000000" points="724.9399,-122 619.0601,-122 619.0601,-86 724.9399,-86 724.9399,-122"/>
<text text-anchor="middle" x="672" y="-99.8" font-family="Times,serif" font-size="14.00" fill="#000000">AppComponent</text>
</g>
<!-- AppModule -->
<g id="node5" class="node">
<title>AppModule</title>
<polygon fill="#8dd3c7" stroke="#000000" points="609.6571,-187 606.6571,-191 585.6571,-191 582.6571,-187 526.3429,-187 526.3429,-151 609.6571,-151 609.6571,-187"/>
<text text-anchor="middle" x="568" y="-164.8" font-family="Times,serif" font-size="14.00" fill="#000000">AppModule</text>
</g>
<!-- AppComponent&#45;&gt;AppModule -->
<g id="edge1" class="edge">
<title>AppComponent&#45;&gt;AppModule</title>
<path fill="none" stroke="#000000" d="M619.1632,-104C611.0744,-104 605.3542,-104 605.3542,-104 605.3542,-104 605.3542,-140.8939 605.3542,-140.8939"/>
<polygon fill="#000000" stroke="#000000" points="601.8542,-140.8938 605.3542,-150.8939 608.8542,-140.8939 601.8542,-140.8938"/>
</g>
<!-- JuegoPage -->
<g id="node2" class="node">
<title>JuegoPage</title>
<polygon fill="#ffffb3" stroke="#000000" points="818.8711,-122 743.1289,-122 743.1289,-86 818.8711,-86 818.8711,-122"/>
<text text-anchor="middle" x="781" y="-99.8" font-family="Times,serif" font-size="14.00" fill="#000000">JuegoPage</text>
</g>
<!-- JuegoPage&#45;&gt;AppModule -->
<g id="edge2" class="edge">
<title>JuegoPage&#45;&gt;AppModule</title>
<path fill="none" stroke="#000000" d="M768.3548,-122.1061C768.3548,-141.3391 768.3548,-169 768.3548,-169 768.3548,-169 620.0009,-169 620.0009,-169"/>
<polygon fill="#000000" stroke="#000000" points="620.001,-165.5001 610.0009,-169 620.0009,-172.5001 620.001,-165.5001"/>
</g>
<!-- JuegoPageModule -->
<g id="node12" class="node">
<title>JuegoPageModule</title>
<polygon fill="#8dd3c7" stroke="#000000" points="1116.9215,-187 1113.9215,-191 1092.9215,-191 1089.9215,-187 997.0785,-187 997.0785,-151 1116.9215,-151 1116.9215,-187"/>
<text text-anchor="middle" x="1057" y="-164.8" font-family="Times,serif" font-size="14.00" fill="#000000">JuegoPageModule</text>
</g>
<!-- JuegoPage&#45;&gt;JuegoPageModule -->
<g id="edge10" class="edge">
<title>JuegoPage&#45;&gt;JuegoPageModule</title>
<path fill="none" stroke="#000000" d="M793.6452,-122.027C793.6452,-138.3976 793.6452,-160 793.6452,-160 793.6452,-160 987.2407,-160 987.2407,-160"/>
<polygon fill="#000000" stroke="#000000" points="987.2407,-163.5001 997.2407,-160 987.2407,-156.5001 987.2407,-163.5001"/>
</g>
<!-- SafePipe -->
<g id="node3" class="node">
<title>SafePipe</title>
<polygon fill="#ffffb3" stroke="#000000" points="600.7606,-122 535.2394,-122 535.2394,-86 600.7606,-86 600.7606,-122"/>
<text text-anchor="middle" x="568" y="-99.8" font-family="Times,serif" font-size="14.00" fill="#000000">SafePipe</text>
</g>
<!-- SafePipe&#45;&gt;AppModule -->
<g id="edge3" class="edge">
<title>SafePipe&#45;&gt;AppModule</title>
<path fill="none" stroke="#000000" d="M568,-122.1061C568,-122.1061 568,-140.991 568,-140.991"/>
<polygon fill="#000000" stroke="#000000" points="564.5001,-140.9909 568,-150.991 571.5001,-140.991 564.5001,-140.9909"/>
</g>
<!-- VideoPrincipalPage -->
<g id="node4" class="node">
<title>VideoPrincipalPage</title>
<polygon fill="#ffffb3" stroke="#000000" points="964.9678,-122 837.0322,-122 837.0322,-86 964.9678,-86 964.9678,-122"/>
<text text-anchor="middle" x="901" y="-99.8" font-family="Times,serif" font-size="14.00" fill="#000000">VideoPrincipalPage</text>
</g>
<!-- VideoPrincipalPage&#45;&gt;AppModule -->
<g id="edge4" class="edge">
<title>VideoPrincipalPage&#45;&gt;AppModule</title>
<path fill="none" stroke="#000000" d="M901,-122.2921C901,-144.2057 901,-178 901,-178 901,-178 619.8375,-178 619.8375,-178"/>
<polygon fill="#000000" stroke="#000000" points="619.8375,-174.5001 609.8375,-178 619.8375,-181.5001 619.8375,-174.5001"/>
</g>
<!-- VideoPrincipalPageModule -->
<g id="node22" class="node">
<title>VideoPrincipalPageModule</title>
<polygon fill="#8dd3c7" stroke="#000000" points="1312.5183,-187 1309.5183,-191 1288.5183,-191 1285.5183,-187 1141.4817,-187 1141.4817,-151 1312.5183,-151 1312.5183,-187"/>
<text text-anchor="middle" x="1227" y="-164.8" font-family="Times,serif" font-size="14.00" fill="#000000">VideoPrincipalPageModule</text>
</g>
<!-- VideoPrincipalPage&#45;&gt;VideoPrincipalPageModule -->
<g id="edge16" class="edge">
<title>VideoPrincipalPage&#45;&gt;VideoPrincipalPageModule</title>
<path fill="none" stroke="#000000" d="M965.0181,-104C1059.958,-104 1227,-104 1227,-104 1227,-104 1227,-140.8939 1227,-140.8939"/>
<polygon fill="#000000" stroke="#000000" points="1223.5001,-140.8938 1227,-150.8939 1230.5001,-140.8939 1223.5001,-140.8938"/>
</g>
<!-- AppComponent  -->
<g id="node7" class="node">
<title>AppComponent </title>
<polygon fill="#80b1d3" stroke="#000000" points="622.439,-252 513.561,-252 513.561,-216 622.439,-216 622.439,-252"/>
<text text-anchor="middle" x="568" y="-229.8" font-family="Times,serif" font-size="14.00" fill="#000000">AppComponent </text>
</g>
<!-- AppModule&#45;&gt;AppComponent  -->
<g id="edge6" class="edge">
<title>AppModule&#45;&gt;AppComponent </title>
<path fill="none" stroke="#000000" stroke-dasharray="1,5" d="M568,-187.1061C568,-187.1061 568,-205.991 568,-205.991"/>
<polygon fill="#000000" stroke="#000000" points="564.5001,-205.9909 568,-215.991 571.5001,-205.991 564.5001,-205.9909"/>
</g>
<!-- AppRoutingModule -->
<g id="node6" class="node">
<title>AppRoutingModule</title>
<polygon fill="#8dd3c7" stroke="#000000" points="511.2744,-122 508.2744,-126 487.2744,-126 484.2744,-122 382.7256,-122 382.7256,-86 511.2744,-86 511.2744,-122"/>
<text text-anchor="middle" x="447" y="-99.8" font-family="Times,serif" font-size="14.00" fill="#000000">AppRoutingModule</text>
</g>
<!-- AppRoutingModule&#45;&gt;AppModule -->
<g id="edge5" class="edge">
<title>AppRoutingModule&#45;&gt;AppModule</title>
<path fill="none" stroke="#000000" d="M511.6653,-104C522.6802,-104 530.6459,-104 530.6459,-104 530.6459,-104 530.6459,-140.8939 530.6459,-140.8939"/>
<polygon fill="#000000" stroke="#000000" points="527.1459,-140.8938 530.6459,-150.8939 534.1459,-140.8939 527.1459,-140.8938"/>
</g>
<!-- BackbuttonService -->
<g id="node8" class="node">
<title>BackbuttonService</title>
<ellipse fill="#fdb462" stroke="#000000" cx="274" cy="-104" rx="84.5305" ry="18"/>
<text text-anchor="middle" x="274" y="-99.8" font-family="Times,serif" font-size="14.00" fill="#000000">BackbuttonService</text>
</g>
<!-- BackbuttonService&#45;&gt;AppModule -->
<g id="edge7" class="edge">
<title>BackbuttonService&#45;&gt;AppModule</title>
<path fill="none" stroke="#000000" d="M274,-122.0225C274,-139.3734 274,-163 274,-163 274,-163 516.1892,-163 516.1892,-163"/>
<polygon fill="#000000" stroke="#000000" points="516.1892,-166.5001 526.1892,-163 516.1892,-159.5001 516.1892,-166.5001"/>
</g>
<!-- NetworkService -->
<g id="node9" class="node">
<title>NetworkService</title>
<ellipse fill="#fdb462" stroke="#000000" cx="98" cy="-104" rx="73.5541" ry="18"/>
<text text-anchor="middle" x="98" y="-99.8" font-family="Times,serif" font-size="14.00" fill="#000000">NetworkService</text>
</g>
<!-- NetworkService&#45;&gt;AppModule -->
<g id="edge8" class="edge">
<title>NetworkService&#45;&gt;AppModule</title>
<path fill="none" stroke="#000000" d="M98,-122.2843C98,-143.3211 98,-175 98,-175 98,-175 516.2906,-175 516.2906,-175"/>
<polygon fill="#000000" stroke="#000000" points="516.2907,-178.5001 526.2906,-175 516.2906,-171.5001 516.2907,-178.5001"/>
</g>
<!-- InicioSesionPage -->
<g id="node10" class="node">
<title>InicioSesionPage</title>
<polygon fill="#ffffb3" stroke="#000000" points="1471.7008,-122 1358.2992,-122 1358.2992,-86 1471.7008,-86 1471.7008,-122"/>
<text text-anchor="middle" x="1415" y="-99.8" font-family="Times,serif" font-size="14.00" fill="#000000">InicioSesionPage</text>
</g>
<!-- InicioSesionPageModule -->
<g id="node11" class="node">
<title>InicioSesionPageModule</title>
<polygon fill="#8dd3c7" stroke="#000000" points="1493.2506,-187 1490.2506,-191 1469.2506,-191 1466.2506,-187 1336.7494,-187 1336.7494,-151 1493.2506,-151 1493.2506,-187"/>
<text text-anchor="middle" x="1415" y="-164.8" font-family="Times,serif" font-size="14.00" fill="#000000">InicioSesionPageModule</text>
</g>
<!-- InicioSesionPage&#45;&gt;InicioSesionPageModule -->
<g id="edge9" class="edge">
<title>InicioSesionPage&#45;&gt;InicioSesionPageModule</title>
<path fill="none" stroke="#000000" d="M1415,-122.1061C1415,-122.1061 1415,-140.991 1415,-140.991"/>
<polygon fill="#000000" stroke="#000000" points="1411.5001,-140.9909 1415,-150.991 1418.5001,-140.991 1411.5001,-140.9909"/>
</g>
<!-- Tab1Page -->
<g id="node13" class="node">
<title>Tab1Page</title>
<polygon fill="#ffffb3" stroke="#000000" points="1610.979,-122 1539.021,-122 1539.021,-86 1610.979,-86 1610.979,-122"/>
<text text-anchor="middle" x="1575" y="-99.8" font-family="Times,serif" font-size="14.00" fill="#000000">Tab1Page</text>
</g>
<!-- Tab1PageModule -->
<g id="node14" class="node">
<title>Tab1PageModule</title>
<polygon fill="#8dd3c7" stroke="#000000" points="1632.5298,-187 1629.5298,-191 1608.5298,-191 1605.5298,-187 1517.4702,-187 1517.4702,-151 1632.5298,-151 1632.5298,-187"/>
<text text-anchor="middle" x="1575" y="-164.8" font-family="Times,serif" font-size="14.00" fill="#000000">Tab1PageModule</text>
</g>
<!-- Tab1Page&#45;&gt;Tab1PageModule -->
<g id="edge11" class="edge">
<title>Tab1Page&#45;&gt;Tab1PageModule</title>
<path fill="none" stroke="#000000" d="M1575,-122.1061C1575,-122.1061 1575,-140.991 1575,-140.991"/>
<polygon fill="#000000" stroke="#000000" points="1571.5001,-140.9909 1575,-150.991 1578.5001,-140.991 1571.5001,-140.9909"/>
</g>
<!-- Tab2Page -->
<g id="node15" class="node">
<title>Tab2Page</title>
<polygon fill="#ffffb3" stroke="#000000" points="1750.979,-122 1679.021,-122 1679.021,-86 1750.979,-86 1750.979,-122"/>
<text text-anchor="middle" x="1715" y="-99.8" font-family="Times,serif" font-size="14.00" fill="#000000">Tab2Page</text>
</g>
<!-- Tab2PageModule -->
<g id="node16" class="node">
<title>Tab2PageModule</title>
<polygon fill="#8dd3c7" stroke="#000000" points="1772.5298,-187 1769.5298,-191 1748.5298,-191 1745.5298,-187 1657.4702,-187 1657.4702,-151 1772.5298,-151 1772.5298,-187"/>
<text text-anchor="middle" x="1715" y="-164.8" font-family="Times,serif" font-size="14.00" fill="#000000">Tab2PageModule</text>
</g>
<!-- Tab2Page&#45;&gt;Tab2PageModule -->
<g id="edge12" class="edge">
<title>Tab2Page&#45;&gt;Tab2PageModule</title>
<path fill="none" stroke="#000000" d="M1715,-122.1061C1715,-122.1061 1715,-140.991 1715,-140.991"/>
<polygon fill="#000000" stroke="#000000" points="1711.5001,-140.9909 1715,-150.991 1718.5001,-140.991 1711.5001,-140.9909"/>
</g>
<!-- Tab3Page -->
<g id="node17" class="node">
<title>Tab3Page</title>
<polygon fill="#ffffb3" stroke="#000000" points="1890.979,-122 1819.021,-122 1819.021,-86 1890.979,-86 1890.979,-122"/>
<text text-anchor="middle" x="1855" y="-99.8" font-family="Times,serif" font-size="14.00" fill="#000000">Tab3Page</text>
</g>
<!-- Tab3PageModule -->
<g id="node18" class="node">
<title>Tab3PageModule</title>
<polygon fill="#8dd3c7" stroke="#000000" points="1912.5298,-187 1909.5298,-191 1888.5298,-191 1885.5298,-187 1797.4702,-187 1797.4702,-151 1912.5298,-151 1912.5298,-187"/>
<text text-anchor="middle" x="1855" y="-164.8" font-family="Times,serif" font-size="14.00" fill="#000000">Tab3PageModule</text>
</g>
<!-- Tab3Page&#45;&gt;Tab3PageModule -->
<g id="edge13" class="edge">
<title>Tab3Page&#45;&gt;Tab3PageModule</title>
<path fill="none" stroke="#000000" d="M1855,-122.1061C1855,-122.1061 1855,-140.991 1855,-140.991"/>
<polygon fill="#000000" stroke="#000000" points="1851.5001,-140.9909 1855,-150.991 1858.5001,-140.991 1851.5001,-140.9909"/>
</g>
<!-- TabsPage -->
<g id="node19" class="node">
<title>TabsPage</title>
<polygon fill="#ffffb3" stroke="#000000" points="2199.4249,-122 2128.5751,-122 2128.5751,-86 2199.4249,-86 2199.4249,-122"/>
<text text-anchor="middle" x="2164" y="-99.8" font-family="Times,serif" font-size="14.00" fill="#000000">TabsPage</text>
</g>
<!-- TabsPageModule -->
<g id="node20" class="node">
<title>TabsPageModule</title>
<polygon fill="#8dd3c7" stroke="#000000" points="2143.9734,-187 2140.9734,-191 2119.9734,-191 2116.9734,-187 2030.0266,-187 2030.0266,-151 2143.9734,-151 2143.9734,-187"/>
<text text-anchor="middle" x="2087" y="-164.8" font-family="Times,serif" font-size="14.00" fill="#000000">TabsPageModule</text>
</g>
<!-- TabsPage&#45;&gt;TabsPageModule -->
<g id="edge14" class="edge">
<title>TabsPage&#45;&gt;TabsPageModule</title>
<path fill="none" stroke="#000000" d="M2136.3875,-122.1061C2136.3875,-122.1061 2136.3875,-140.991 2136.3875,-140.991"/>
<polygon fill="#000000" stroke="#000000" points="2132.8875,-140.9909 2136.3875,-150.991 2139.8875,-140.991 2132.8875,-140.9909"/>
</g>
<!-- TabsPageRoutingModule -->
<g id="node21" class="node">
<title>TabsPageRoutingModule</title>
<polygon fill="#8dd3c7" stroke="#000000" points="2104.5912,-122 2101.5912,-126 2080.5912,-126 2077.5912,-122 1945.4088,-122 1945.4088,-86 2104.5912,-86 2104.5912,-122"/>
<text text-anchor="middle" x="2025" y="-99.8" font-family="Times,serif" font-size="14.00" fill="#000000">TabsPageRoutingModule</text>
</g>
<!-- TabsPageRoutingModule&#45;&gt;TabsPageModule -->
<g id="edge15" class="edge">
<title>TabsPageRoutingModule&#45;&gt;TabsPageModule</title>
<path fill="none" stroke="#000000" d="M2067.2795,-122.1061C2067.2795,-122.1061 2067.2795,-140.991 2067.2795,-140.991"/>
<polygon fill="#000000" stroke="#000000" points="2063.7795,-140.9909 2067.2795,-150.991 2070.7795,-140.991 2063.7795,-140.9909"/>
</g>
</g>
</svg>
