<?xml version="1.0" encoding="UTF-8" standalone="no"?>
<!DOCTYPE svg PUBLIC "-//W3C//DTD SVG 1.1//EN"
 "http://www.w3.org/Graphics/SVG/1.1/DTD/svg11.dtd">
<!-- Generated by graphviz version 2.40.1 (20161225.0304)
 -->
<!-- Title: dependencies Pages: 1 -->
<svg width="997pt" height="284pt"
 viewBox="0.00 0.00 997.00 284.00" xmlns="http://www.w3.org/2000/svg" xmlns:xlink="http://www.w3.org/1999/xlink">
<g id="graph0" class="graph" transform="scale(1 1) rotate(0) translate(4 280)">
<title>dependencies</title>
<polygon fill="#ffffff" stroke="transparent" points="-4,4 -4,-280 993,-280 993,4 -4,4"/>
<text text-anchor="start" x="473.5091" y="-42.4" font-family="sans-serif" font-weight="bold" font-size="14.00" fill="#000000">Legend</text>
<polygon fill="#ffffb3" stroke="transparent" points="260.5,-10 260.5,-30 280.5,-30 280.5,-10 260.5,-10"/>
<text text-anchor="start" x="284.129" y="-15.4" font-family="sans-serif" font-size="14.00" fill="#000000"> &#160;Declarations</text>
<polygon fill="#8dd3c7" stroke="transparent" points="373.5,-10 373.5,-30 393.5,-30 393.5,-10 373.5,-10"/>
<text text-anchor="start" x="397.2251" y="-15.4" font-family="sans-serif" font-size="14.00" fill="#000000"> &#160;Module</text>
<polygon fill="#80b1d3" stroke="transparent" points="459.5,-10 459.5,-30 479.5,-30 479.5,-10 459.5,-10"/>
<text text-anchor="start" x="483.2812" y="-15.4" font-family="sans-serif" font-size="14.00" fill="#000000"> &#160;Bootstrap</text>
<polygon fill="#fdb462" stroke="transparent" points="556.5,-10 556.5,-30 576.5,-30 576.5,-10 556.5,-10"/>
<text text-anchor="start" x="580.1732" y="-15.4" font-family="sans-serif" font-size="14.00" fill="#000000"> &#160;Providers</text>
<polygon fill="#fb8072" stroke="transparent" points="652.5,-10 652.5,-30 672.5,-30 672.5,-10 652.5,-10"/>
<text text-anchor="start" x="676.2258" y="-15.4" font-family="sans-serif" font-size="14.00" fill="#000000"> &#160;Exports</text>
<g id="clust1" class="cluster">
<title>cluster_AppModule</title>
<polygon fill="none" stroke="#000000" stroke-dasharray="1,5" points="8,-70 8,-268 981,-268 981,-70 8,-70"/>
</g>
<g id="clust2" class="cluster">
<title>cluster_AppModule_declarations</title>
<polygon fill="none" stroke="#000000" points="527,-78 527,-130 973,-130 973,-78 527,-78"/>
</g>
<g id="clust7" class="cluster">
<title>cluster_AppModule_imports</title>
<polygon fill="none" stroke="#000000" points="375,-78 375,-130 519,-130 519,-78 375,-78"/>
</g>
<g id="clust9" class="cluster">
<title>cluster_AppModule_bootstrap</title>
<polygon fill="none" stroke="#000000" points="537,-208 537,-260 661,-260 661,-208 537,-208"/>
</g>
<g id="clust10" class="cluster">
<title>cluster_AppModule_providers</title>
<polygon fill="none" stroke="#000000" points="16,-78 16,-130 367,-130 367,-78 16,-78"/>
</g>
<!-- AppComponent -->
<g id="node1" class="node">
<title>AppComponent</title>
<polygon fill="#ffffb3" stroke="#000000" points="964.9399,-122 859.0601,-122 859.0601,-86 964.9399,-86 964.9399,-122"/>
<text text-anchor="middle" x="912" y="-99.8" font-family="Times,serif" font-size="14.00" fill="#000000">AppComponent</text>
</g>
<!-- AppModule -->
<g id="node5" class="node">
<title>AppModule</title>
<polygon fill="#8dd3c7" stroke="#000000" points="640.6571,-187 637.6571,-191 616.6571,-191 613.6571,-187 557.3429,-187 557.3429,-151 640.6571,-151 640.6571,-187"/>
<text text-anchor="middle" x="599" y="-164.8" font-family="Times,serif" font-size="14.00" fill="#000000">AppModule</text>
</g>
<!-- AppComponent&#45;&gt;AppModule -->
<g id="edge1" class="edge">
<title>AppComponent&#45;&gt;AppModule</title>
<path fill="none" stroke="#000000" d="M912,-122.2921C912,-144.2057 912,-178 912,-178 912,-178 650.8878,-178 650.8878,-178"/>
<polygon fill="#000000" stroke="#000000" points="650.8878,-174.5001 640.8878,-178 650.8878,-181.5001 650.8878,-174.5001"/>
</g>
<!-- JuegoPage -->
<g id="node2" class="node">
<title>JuegoPage</title>
<polygon fill="#ffffb3" stroke="#000000" points="840.8711,-122 765.1289,-122 765.1289,-86 840.8711,-86 840.8711,-122"/>
<text text-anchor="middle" x="803" y="-99.8" font-family="Times,serif" font-size="14.00" fill="#000000">JuegoPage</text>
</g>
<!-- JuegoPage&#45;&gt;AppModule -->
<g id="edge2" class="edge">
<title>JuegoPage&#45;&gt;AppModule</title>
<path fill="none" stroke="#000000" d="M803,-122.1061C803,-141.3391 803,-169 803,-169 803,-169 650.7747,-169 650.7747,-169"/>
<polygon fill="#000000" stroke="#000000" points="650.7747,-165.5001 640.7747,-169 650.7747,-172.5001 650.7747,-165.5001"/>
</g>
<!-- SafePipe -->
<g id="node3" class="node">
<title>SafePipe</title>
<polygon fill="#ffffb3" stroke="#000000" points="746.7606,-122 681.2394,-122 681.2394,-86 746.7606,-86 746.7606,-122"/>
<text text-anchor="middle" x="714" y="-99.8" font-family="Times,serif" font-size="14.00" fill="#000000">SafePipe</text>
</g>
<!-- SafePipe&#45;&gt;AppModule -->
<g id="edge3" class="edge">
<title>SafePipe&#45;&gt;AppModule</title>
<path fill="none" stroke="#000000" d="M714,-122.027C714,-138.3976 714,-160 714,-160 714,-160 650.843,-160 650.843,-160"/>
<polygon fill="#000000" stroke="#000000" points="650.843,-156.5001 640.843,-160 650.8429,-163.5001 650.843,-156.5001"/>
</g>
<!-- VideoPrincipalPage -->
<g id="node4" class="node">
<title>VideoPrincipalPage</title>
<polygon fill="#ffffb3" stroke="#000000" points="662.9678,-122 535.0322,-122 535.0322,-86 662.9678,-86 662.9678,-122"/>
<text text-anchor="middle" x="599" y="-99.8" font-family="Times,serif" font-size="14.00" fill="#000000">VideoPrincipalPage</text>
</g>
<!-- VideoPrincipalPage&#45;&gt;AppModule -->
<g id="edge4" class="edge">
<title>VideoPrincipalPage&#45;&gt;AppModule</title>
<path fill="none" stroke="#000000" d="M599,-122.1061C599,-122.1061 599,-140.991 599,-140.991"/>
<polygon fill="#000000" stroke="#000000" points="595.5001,-140.9909 599,-150.991 602.5001,-140.991 595.5001,-140.9909"/>
</g>
<!-- AppComponent  -->
<g id="node7" class="node">
<title>AppComponent </title>
<polygon fill="#80b1d3" stroke="#000000" points="653.439,-252 544.561,-252 544.561,-216 653.439,-216 653.439,-252"/>
<text text-anchor="middle" x="599" y="-229.8" font-family="Times,serif" font-size="14.00" fill="#000000">AppComponent </text>
</g>
<!-- AppModule&#45;&gt;AppComponent  -->
<g id="edge6" class="edge">
<title>AppModule&#45;&gt;AppComponent </title>
<path fill="none" stroke="#000000" stroke-dasharray="1,5" d="M599,-187.1061C599,-187.1061 599,-205.991 599,-205.991"/>
<polygon fill="#000000" stroke="#000000" points="595.5001,-205.9909 599,-215.991 602.5001,-205.991 595.5001,-205.9909"/>
</g>
<!-- AppRoutingModule -->
<g id="node6" class="node">
<title>AppRoutingModule</title>
<polygon fill="#8dd3c7" stroke="#000000" points="511.2744,-122 508.2744,-126 487.2744,-126 484.2744,-122 382.7256,-122 382.7256,-86 511.2744,-86 511.2744,-122"/>
<text text-anchor="middle" x="447" y="-99.8" font-family="Times,serif" font-size="14.00" fill="#000000">AppRoutingModule</text>
</g>
<!-- AppRoutingModule&#45;&gt;AppModule -->
<g id="edge5" class="edge">
<title>AppRoutingModule&#45;&gt;AppModule</title>
<path fill="none" stroke="#000000" d="M447,-122.027C447,-138.3976 447,-160 447,-160 447,-160 547.063,-160 547.063,-160"/>
<polygon fill="#000000" stroke="#000000" points="547.063,-163.5001 557.063,-160 547.0629,-156.5001 547.063,-163.5001"/>
</g>
<!-- BackbuttonService -->
<g id="node8" class="node">
<title>BackbuttonService</title>
<ellipse fill="#fdb462" stroke="#000000" cx="274" cy="-104" rx="84.5305" ry="18"/>
<text text-anchor="middle" x="274" y="-99.8" font-family="Times,serif" font-size="14.00" fill="#000000">BackbuttonService</text>
</g>
<!-- BackbuttonService&#45;&gt;AppModule -->
<g id="edge7" class="edge">
<title>BackbuttonService&#45;&gt;AppModule</title>
<path fill="none" stroke="#000000" d="M274,-122.1061C274,-141.3391 274,-169 274,-169 274,-169 547.1773,-169 547.1773,-169"/>
<polygon fill="#000000" stroke="#000000" points="547.1773,-172.5001 557.1773,-169 547.1772,-165.5001 547.1773,-172.5001"/>
</g>
<!-- NetworkService -->
<g id="node9" class="node">
<title>NetworkService</title>
<ellipse fill="#fdb462" stroke="#000000" cx="98" cy="-104" rx="73.5541" ry="18"/>
<text text-anchor="middle" x="98" y="-99.8" font-family="Times,serif" font-size="14.00" fill="#000000">NetworkService</text>
</g>
<!-- NetworkService&#45;&gt;AppModule -->
<g id="edge8" class="edge">
<title>NetworkService&#45;&gt;AppModule</title>
<path fill="none" stroke="#000000" d="M98,-122.2921C98,-144.2057 98,-178 98,-178 98,-178 547.1467,-178 547.1467,-178"/>
<polygon fill="#000000" stroke="#000000" points="547.1468,-181.5001 557.1467,-178 547.1467,-174.5001 547.1468,-181.5001"/>
</g>
</g>
</svg>
